{
	"asset":{
		"generator":"Khronos glTF Blender I/O v3.6.27",
		"version":"2.0"
	},
	"scene":0,
	"scenes":[
		{
			"name":"Scene",
			"nodes":[
				0
			]
		}
	],
	"nodes":[
		{
			"mesh":0,
			"name":"Cube.001",
			"rotation":[
				-0.6067134141921997,
				0.019364051520824432,
				-0.7945361733436584,
				0.015366761013865471
			],
			"scale":[
				-1.4914432764053345,
				-1.4914436340332031,
				-1.4914430379867554
			],
			"translation":[
				4.353384494781494,
				4.100408554077148,
				-3.234834671020508
			]
		}
	],
	"materials":[
		{
			"doubleSided":true,
			"name":"Material.003",
			"pbrMetallicRoughness":{
				"baseColorTexture":{
					"index":0
				},
				"metallicFactor":0,
				"roughnessFactor":0.5
			}
		}
	],
	"meshes":[
		{
			"name":"Cube.003",
			"primitives":[
				{
					"attributes":{
						"POSITION":0,
						"NORMAL":1,
						"TEXCOORD_0":2
					},
					"indices":3,
					"material":0
				}
			]
		}
	],
	"textures":[
		{
			"sampler":0,
			"source":0
		}
	],
	"images":[
		{
			"bufferView":4,
			"mimeType":"image/png",
			"name":"ship_uv"
		}
	],
	"accessors":[
		{
			"bufferView":0,
			"componentType":5126,
			"count":7266,
			"max":[
				1.7499935626983643,
				0.12153691053390503,
				6.728022575378418
			],
			"min":[
				-9.255854606628418,
				-2.3779702186584473,
				-6.728022575378418
			],
			"type":"VEC3"
		},
		{
			"bufferView":1,
			"componentType":5126,
			"count":7266,
			"type":"VEC3"
		},
		{
			"bufferView":2,
			"componentType":5126,
			"count":7266,
			"type":"VEC2"
		},
		{
			"bufferView":3,
			"componentType":5123,
			"count":7824,
			"type":"SCALAR"
		}
	],
	"bufferViews":[
		{
			"buffer":0,
			"byteLength":87192,
			"byteOffset":0,
			"target":34962
		},
		{
			"buffer":0,
			"byteLength":87192,
			"byteOffset":87192,
			"target":34962
		},
		{
			"buffer":0,
			"byteLength":58128,
			"byteOffset":174384,
			"target":34962
		},
		{
			"buffer":0,
			"byteLength":15648,
			"byteOffset":232512,
			"target":34963
		},
		{
			"buffer":0,
			"byteLength":229152,
			"byteOffset":248160
		}
	],
	"samplers":[
		{
			"magFilter":9729,
			"minFilter":9987
		}
	],
	"buffers":[
		{
			"byteLength":477312,
			"uri":"data:application/octet-stream;base64,"
		}
	]
}
